# xmcd
#
# Track frame offsets:
#	182
#	16235
#	30967
#	45420
#	63392
#	77492
#	93292
#	107807
#	125215
#	137557
#	152687
#	165540
#
# Disc length: 2436 seconds
#
# Revision: 2
# Processed by: cddbd v1.5.1PL0 Copyright (c) Steve Scherf et al.
# Submitted via: MusicWizard 7.0.2
#
DISCID=8909820c
DTITLE=Pam Tillis - Greatest Hits
DYEAR=1997
DGENRE=Country
TTITLE0=Land Of The Living
TTITLE1=All The Good Ones Are Gone
TTITLE2=Don't Tell Me What To Do
TTITLE3=Maybe It Was Memphis
TTITLE4=Shake The Sugar Tree
TTITLE5=Let That Pony Run
TTITLE6=Cleopatra, Queen Of Denial
TTITLE7=Spilled Perfume
TTITLE8=When You Walk In The Room
TTITLE9=In Between Dances
TTITLE10=Mi Vida Loca (My Crazy Life)
TTITLE11=The River And The Highway
EXTD=YEAR: 1997 ID3G: 2
EXTT0=
EXTT1=
EXTT2=
EXTT3=
EXTT4=
EXTT5=
EXTT6=
EXTT7=
EXTT8=
EXTT9=
EXTT10=
EXTT11=
PLAYORDER=
